<?xml version="1.0" encoding="UTF-8"?>
<svg xmlns="http://www.w3.org/2000/svg" xmlns:xlink="http://www.w3.org/1999/xlink" width="793.7pt" height="359.3pt" viewBox="0 0 793.7 359.3" version="1.1">
<defs>
<clipPath id="clip1">
  <path d="M 0 0 L 793.699219 0 L 793.699219 265 L 0 265 Z M 0 0 "/>
</clipPath>
<clipPath id="clip2">
  <path d="M 361 342 L 433 342 L 433 359.300781 L 361 359.300781 Z M 361 342 "/>
</clipPath>
</defs>
<g id="surface1">
<g clip-path="url(#clip1)" clip-rule="nonzero">
<path style=" stroke:none;fill-rule:evenodd;fill:rgb(98.826599%,69.334412%,21.166992%);fill-opacity:1;" d="M 681.773438 69.417969 C 683.203125 67.503906 684.742188 65.683594 686.378906 63.984375 C 700.113281 49.710938 717.929688 43.148438 737.582031 43.046875 C 754.5 42.960938 772.726563 46.558594 787.191406 55.652344 L 793.796875 59.800781 L 774.367188 105.730469 L 745.222656 105.730469 L 745.410156 96.382813 C 745.496094 91.960938 745.304688 83.980469 742.195313 80.441406 C 740.390625 78.382813 737.386719 77.960938 734.796875 77.917969 C 730.289063 77.847656 725.1875 78.792969 721.964844 82.21875 C 719.871094 84.449219 718.878906 87.507813 719.234375 90.542969 C 719.722656 94.730469 722.492188 97.742188 726.429688 99.066406 C 743.601563 104.839844 762.972656 113.730469 771.71875 130.628906 C 778.5625 143.84375 777.175781 158.433594 772.65625 172.019531 L 793.644531 172.019531 L 790.929688 183.328125 C 783.726563 213.34375 766.824219 237.835938 737.679688 249.769531 C 722.925781 255.8125 706.777344 257.851563 690.921875 257.066406 C 657.257813 255.40625 632.734375 240.242188 617.804688 210.136719 C 613.3125 201.078125 611.488281 188.417969 609.316406 178.464844 C 607.839844 171.703125 604.78125 157.839844 598.824219 152.960938 L 589.605469 179.796875 C 589.042969 181.433594 587.886719 186.449219 588.898438 188.207031 C 589.117188 188.25 589.417969 188.257813 589.578125 188.257813 L 602.417969 188.257813 L 591.503906 220.039063 L 220.449219 220.039063 L 199.253906 264.6875 L 0.09375 264.6875 L 17.691406 227.625 L 23.484375 227.625 C 39.871094 227.625 48 221.066406 54.707031 206.941406 L 127.742188 53.09375 C 128.59375 51.304688 129.371094 49.425781 129.902344 47.515625 C 130.304688 46.070313 130.757813 43.847656 130.34375 42.359375 C 129.300781 38.613281 118.113281 38.28125 115.449219 38.28125 L 100.949219 38.28125 L 119.128906 -0.015625 L 242.597656 -0.015625 L 224.414063 38.28125 L 218.621094 38.28125 C 205.894531 38.28125 194.191406 50.175781 189.074219 60.957031 L 129.460938 186.523438 C 136.691406 182.164063 144.828125 170.761719 148.484375 165.855469 L 236.453125 47.859375 L 278.457031 47.859375 L 278.457031 179.691406 L 312.496094 93.207031 C 313.449219 90.78125 316.007813 82.484375 314.878906 79.601563 C 314.496094 79.523438 313.949219 79.507813 313.675781 79.507813 L 300.21875 79.507813 L 312.671875 47.859375 L 647.273438 47.859375 C 664.648438 47.859375 677.25 55.667969 681.773438 69.417969 Z M 671.113281 114.375 C 668.882813 117.199219 666.464844 119.839844 663.96875 122.269531 C 656.125 129.902344 646.769531 136.21875 636.761719 140.949219 C 640.449219 146.410156 643.132813 152.558594 645.671875 158.625 C 646.546875 160.71875 647.40625 162.792969 648.273438 164.851563 L 659.570313 138.152344 L 684.875 138.152344 L 684.097656 148.035156 C 683.214844 159.296875 685.941406 176.480469 697.71875 181.644531 C 699.703125 182.515625 701.792969 182.921875 703.957031 182.910156 C 711.011719 182.867188 718.042969 179.855469 723.171875 175.058594 C 726.398438 172.039063 730.167969 166.816406 729.507813 162.105469 C 729.066406 158.941406 726.445313 156.804688 723.800781 155.351563 C 720.503906 153.542969 716.1875 152.03125 712.671875 150.585938 C 706.804688 148.175781 701 145.617188 695.46875 142.496094 C 684.601563 136.359375 674.324219 127.726563 671.277344 115.082031 C 671.222656 114.847656 671.167969 114.613281 671.113281 114.375 Z M 562.203125 79.507813 L 553.199219 105.730469 L 519.09375 105.730469 L 523.265625 93.585938 C 523.335938 93.378906 523.394531 93.164063 523.4375 92.949219 C 523.773438 91.285156 523.382813 89.375 522.761719 87.820313 C 522.125 86.214844 519.523438 82.0625 517.523438 82.0625 L 498.664063 82.0625 L 489.296875 107.347656 L 522.871094 107.351563 L 504.476563 157.015625 L 484.171875 157.015625 L 481.613281 152.054688 C 479.871094 148.683594 478.210938 145.910156 475.605469 144.3125 L 459.328125 188.257813 L 471.394531 188.257813 C 481.050781 188.257813 497.28125 177.445313 500.402344 168.359375 L 502.527344 162.167969 L 536.164063 162.167969 L 527.242188 188.144531 C 529.585938 187.375 533.003906 182.984375 534.03125 181.4375 C 535.558594 179.140625 536.898438 176.527344 537.796875 173.914063 L 570.117188 79.800781 C 570.121094 79.789063 570.125 79.773438 570.132813 79.761719 C 569.371094 79.578125 568.421875 79.507813 567.886719 79.507813 Z M 361.371094 102.726563 L 390.875 79.535156 C 390.589844 79.515625 390.332031 79.507813 390.113281 79.507813 L 376.355469 79.507813 C 370.039063 79.507813 364.34375 95.175781 362.472656 99.921875 Z M 340.734375 188.257813 L 346.976563 188.257813 C 347.636719 188.257813 349.441406 188.167969 349.972656 187.640625 C 352.125 185.519531 349.550781 175.640625 348.816406 173.320313 L 345.371094 162.460938 L 334.496094 171.007813 L 329.21875 184.417969 C 329.402344 185.769531 332.007813 188.097656 333.261719 188.257813 Z M 196.128906 188.257813 L 201.925781 188.257813 C 211.105469 188.257813 218.753906 184.355469 222.578125 177.257813 L 186.882813 177.148438 L 182.789063 182.636719 C 182.363281 183.207031 181.039063 185.28125 181.347656 186.09375 C 181.984375 187.78125 187.335938 188.257813 188.710938 188.257813 Z M 449.101563 82.480469 C 447.140625 82.851563 444.390625 84.640625 443.371094 85.441406 L 389.835938 127.515625 L 404.917969 175.410156 C 405.542969 177.390625 407.695313 182.953125 409.742188 185.179688 C 411.738281 182.578125 414.140625 176.429688 414.90625 174.375 L 449.046875 82.632813 C 449.0625 82.589844 449.082031 82.535156 449.101563 82.480469 Z M 226.785156 138.152344 L 227.648438 122.464844 L 215.953125 138.152344 Z M 613.246094 110.964844 C 620.945313 107.1875 627.582031 100.675781 630.550781 93.1875 C 631.578125 90.589844 632.410156 87.238281 631.863281 84.433594 C 631.742188 83.820313 631.367188 82.527344 630.765625 82.175781 C 630.601563 82.078125 630.375 82.0625 630.191406 82.0625 L 623.171875 82.0625 Z M 613.246094 110.964844 "/>
</g>
<path style=" stroke:none;fill-rule:evenodd;fill:rgb(32.93457%,17.651367%,51.756287%);fill-opacity:1;" d="M 381.597656 57.027344 L 376.355469 70.339844 C 364.265625 70.339844 358.15625 85.863281 353.945313 96.5625 L 340.464844 130.816406 L 398.039063 85.5625 C 410.730469 75.589844 398.808594 70.339844 390.113281 70.339844 L 395.355469 57.027344 L 560.230469 57.027344 L 546.652344 96.5625 L 531.933594 96.5625 C 535.433594 86.382813 526.757813 72.894531 517.523438 72.894531 L 492.285156 72.894531 L 476.128906 116.515625 L 509.703125 116.515625 L 498.09375 147.851563 L 489.757813 147.851563 C 485.652344 139.894531 480.46875 133.667969 469.773438 133.667969 L 446.15625 197.425781 L 471.394531 197.425781 C 486.339844 197.425781 505.101563 182.890625 509.070313 171.335938 L 523.324219 171.335938 L 509.746094 210.875 L 341.683594 210.875 L 346.976563 197.425781 C 359.332031 197.425781 362.875 187.328125 357.554688 170.550781 L 350.109375 147.078125 L 326.878906 165.339844 L 320.628906 181.214844 C 317.703125 188.644531 326.339844 197.425781 333.21875 197.425781 L 327.925781 210.875 L 214.65625 210.875 L 193.457031 255.523438 L 14.59375 255.523438 L 23.484375 236.792969 C 46.335938 236.792969 56.234375 225.097656 62.984375 210.875 L 136.023438 57.027344 C 140.980469 46.585938 145.707031 29.117188 115.449219 29.117188 L 124.925781 9.152344 L 228.097656 9.152344 L 218.621094 29.117188 C 202.214844 29.117188 187.511719 42.871094 180.792969 57.027344 L 102.648438 221.632813 L 162.65625 221.632813 C 180.988281 221.632813 195.539063 210.875 201.925781 197.425781 C 221.039063 197.425781 233.40625 184.703125 234.316406 168.125 L 182.292969 167.96875 L 175.441406 177.160156 C 167.816406 187.386719 173.929688 197.425781 188.710938 197.425781 L 182.324219 210.875 L 117.917969 210.875 L 124.304688 197.425781 C 136.382813 197.425781 147.132813 183.003906 155.832031 171.335938 L 241.050781 57.027344 L 269.292969 57.027344 L 269.292969 183.113281 C 269.292969 200.492188 281.609375 196.710938 285.949219 185.6875 L 321.023438 96.5625 C 324.347656 88.117188 328.632813 70.339844 313.675781 70.339844 L 318.917969 57.027344 Z M 572.460938 57.027344 L 647.273438 57.027344 C 657.671875 57.027344 677 60.683594 674.171875 86.238281 C 671.996094 105.863281 649.875 128.125 620.828125 137.402344 C 635.109375 147.320313 636.953125 167.972656 650.765625 190.601563 C 675.960938 231.890625 740.011719 227.746094 766.554688 181.1875 L 782.019531 181.1875 C 769.539063 233.171875 730.664063 249.851563 691.375 247.914063 C 652.085938 245.972656 635.046875 224.269531 626.019531 206.066406 C 616.992188 187.863281 619.308594 141.824219 592.953125 141.824219 L 580.9375 176.820313 C 577.484375 186.867188 579.367188 197.425781 589.578125 197.425781 L 584.960938 210.875 L 521.972656 210.875 L 526.589844 197.425781 C 535.234375 197.425781 543.371094 185.898438 546.464844 176.890625 L 578.785156 82.777344 C 581.886719 73.75 574.613281 70.339844 567.886719 70.339844 Z M 723.507813 107.753906 C 758.640625 119.566406 776.78125 136.910156 762.257813 173.796875 C 756.335938 188.847656 742.496094 201.375 724.425781 207.863281 C 693.734375 218.878906 666.738281 206.863281 652.484375 178.433594 L 665.644531 147.320313 L 674.960938 147.320313 C 672.957031 172.84375 685.664063 192.179688 704.011719 192.074219 C 730.84375 191.917969 752.445313 160.632813 728.214844 147.320313 C 718.375 141.914063 685.144531 133.515625 680.1875 112.9375 C 677.308594 100.964844 680.320313 83.496094 692.984375 70.339844 C 704.792969 58.066406 720.132813 52.304688 737.628906 52.214844 C 753.789063 52.128906 770.019531 55.683594 782.316406 63.414063 L 768.292969 96.5625 L 754.574219 96.5625 C 754.863281 81.914063 751.578125 69.015625 734.941406 68.753906 C 705.554688 68.289063 702.640625 100.738281 723.507813 107.753906 Z M 599.210938 123.609375 C 617.683594 123.609375 633.742188 110.003906 639.070313 96.5625 C 644.402344 83.125 639.078125 72.894531 630.191406 72.894531 L 616.628906 72.894531 Z M 423.496094 177.574219 L 457.636719 85.832031 C 461.878906 74.433594 450.238281 68.382813 437.707031 78.234375 L 379.1875 124.226563 L 396.175781 178.164063 C 398.261719 184.789063 402.980469 195.003906 410.0625 195.003906 C 416.003906 195.003906 420.132813 186.613281 423.496094 177.574219 Z M 235.460938 147.320313 L 238.472656 92.613281 L 197.6875 147.320313 Z M 235.460938 147.320313 "/>
<g clip-path="url(#clip2)" clip-rule="nonzero">
<path style=" stroke:none;fill-rule:evenodd;fill:rgb(0%,0%,0%);fill-opacity:1;" d="M 363.453125 354.164063 C 362.84375 354.164063 362.40625 354.050781 362.132813 353.816406 C 361.859375 353.585938 361.726563 353.238281 361.726563 352.773438 C 361.726563 352.550781 361.765625 352.253906 361.84375 351.886719 L 362.445313 349.007813 C 362.539063 348.558594 362.652344 348.183594 362.78125 347.878906 C 362.910156 347.574219 363.070313 347.332031 363.261719 347.15625 C 363.453125 346.980469 363.683594 346.859375 363.957031 346.785156 C 364.230469 346.714844 364.558594 346.679688 364.941406 346.679688 L 371.109375 346.679688 L 370.675781 348.742188 L 366.261719 348.742188 C 366.035156 348.742188 365.875 348.78125 365.78125 348.863281 C 365.683594 348.941406 365.613281 349.109375 365.566406 349.367188 L 365.300781 350.636719 C 365.285156 350.71875 365.273438 350.78125 365.265625 350.828125 C 365.257813 350.878906 365.253906 350.925781 365.253906 350.972656 C 365.253906 351.183594 365.40625 351.285156 365.707031 351.285156 L 371.324219 351.285156 L 372.597656 345.335938 C 372.613281 345.269531 372.621094 345.183594 372.621094 345.070313 C 372.621094 344.941406 372.582031 344.84375 372.5 344.769531 C 372.421875 344.699219 372.269531 344.660156 372.042969 344.660156 L 363.8125 344.660156 L 364.363281 342.023438 L 374.300781 342.023438 C 375.003906 342.023438 375.5 342.136719 375.789063 342.371094 C 376.078125 342.601563 376.222656 342.964844 376.222656 343.460938 C 376.222656 343.6875 376.179688 343.996094 376.101563 344.398438 L 374.035156 354.164063 Z M 375.621094 359.253906 L 376.246094 356.351563 L 384.308594 356.351563 C 384.582031 356.351563 384.769531 356.300781 384.871094 356.207031 C 384.976563 356.109375 385.0625 355.925781 385.125 355.652344 L 385.460938 354.164063 L 378.546875 354.164063 C 377.875 354.164063 377.394531 354.050781 377.097656 353.816406 C 376.800781 353.585938 376.652344 353.222656 376.652344 352.726563 C 376.652344 352.5 376.691406 352.191406 376.773438 351.789063 L 378.835938 342.023438 L 382.195313 342.023438 L 380.347656 350.734375 C 380.332031 350.796875 380.320313 350.855469 380.3125 350.902344 C 380.304688 350.949219 380.300781 350.996094 380.300781 351.046875 C 380.300781 351.300781 380.492188 351.429688 380.875 351.429688 L 386.035156 351.429688 L 388.027344 342.023438 L 391.414063 342.023438 L 388.246094 356.878906 C 388.070313 357.695313 387.773438 358.292969 387.355469 358.679688 C 386.941406 359.0625 386.292969 359.253906 385.414063 359.253906 Z M 391.125 354.164063 L 393.691406 342.023438 L 396.957031 342.023438 L 396.667969 343.34375 C 396.972656 342.878906 397.3125 342.542969 397.6875 342.332031 C 398.066406 342.125 398.515625 342.023438 399.042969 342.023438 L 402.574219 342.023438 L 401.949219 344.925781 L 397.101563 344.925781 C 396.859375 344.925781 396.679688 344.96875 396.5625 345.058594 C 396.441406 345.144531 396.347656 345.324219 396.285156 345.597656 L 394.484375 354.164063 Z M 411.597656 354.164063 L 411.859375 352.871094 C 411.558594 353.332031 411.21875 353.664063 410.839844 353.867188 C 410.464844 354.066406 410.019531 354.164063 409.507813 354.164063 L 404.230469 354.164063 C 403.589844 354.164063 403.113281 354.054688 402.800781 353.828125 C 402.488281 353.605469 402.332031 353.230469 402.332031 352.703125 C 402.332031 352.460938 402.371094 352.15625 402.453125 351.789063 L 404.515625 342.023438 L 407.878906 342.023438 L 406.054688 350.589844 C 406.019531 350.75 406.003906 350.855469 406.003906 350.902344 C 406.003906 351.15625 406.195313 351.285156 406.582031 351.285156 L 411.40625 351.285156 C 411.660156 351.285156 411.84375 351.238281 411.957031 351.140625 C 412.070313 351.046875 412.15625 350.863281 412.222656 350.589844 L 414.042969 342.023438 L 417.40625 342.023438 L 414.835938 354.164063 Z M 417.332031 354.164063 L 417.910156 351.382813 L 426.238281 351.382813 C 426.492188 351.382813 426.664063 351.34375 426.753906 351.261719 C 426.839844 351.183594 426.910156 351.03125 426.957031 350.804688 L 427.222656 349.605469 C 427.238281 349.558594 427.246094 349.492188 427.246094 349.414063 C 427.246094 349.207031 427.085938 349.101563 426.765625 349.101563 L 420.261719 349.101563 C 419.71875 349.101563 419.320313 348.992188 419.074219 348.777344 C 418.824219 348.5625 418.699219 348.269531 418.699219 347.902344 C 418.699219 347.742188 418.726563 347.566406 418.773438 347.375 L 419.445313 344.132813 C 419.589844 343.414063 419.859375 342.882813 420.261719 342.539063 C 420.660156 342.195313 421.285156 342.023438 422.132813 342.023438 L 432.164063 342.023438 L 431.589844 344.734375 L 423.308594 344.734375 C 423.054688 344.734375 422.867188 344.78125 422.757813 344.878906 C 422.644531 344.972656 422.566406 345.140625 422.515625 345.382813 L 422.300781 346.390625 C 422.285156 346.4375 422.277344 346.511719 422.277344 346.605469 C 422.277344 346.863281 422.445313 346.988281 422.78125 346.988281 L 429.355469 346.988281 C 429.917969 346.988281 430.320313 347.101563 430.570313 347.324219 C 430.816406 347.550781 430.941406 347.847656 430.941406 348.214844 C 430.941406 348.292969 430.9375 348.375 430.929688 348.453125 C 430.921875 348.535156 430.910156 348.613281 430.894531 348.695313 L 430.171875 352.054688 C 430.011719 352.773438 429.734375 353.304688 429.332031 353.648438 C 428.933594 353.992188 428.308594 354.164063 427.460938 354.164063 Z M 417.332031 354.164063 "/>
</g>
</g>
</svg>
